<svg width="32" height="32" viewBox="0 0 32 32" xmlns="http://www.w3.org/2000/svg">
  <defs>
    <linearGradient id="bg" x1="0" y1="0" x2="1" y2="1">
      <stop offset="0" stop-color="#0c1330"/>
      <stop offset="1" stop-color="#0a1f2b"/>
    </linearGradient>
    <linearGradient id="gold" x1="0" y1="0" x2="0" y2="1">
      <stop offset="0" stop-color="#ffe38a"/>
      <stop offset="1" stop-color="#f2b21a"/>
    </linearGradient>
  </defs>
  <rect width="32" height="32" rx="7" fill="url(#bg)"/>
  <rect x="0.5" y="0.5" width="31" height="31" rx="6.5" fill="none" stroke="#00e0a4" stroke-opacity="0.35"/>
  <!-- asas -->
  <path d="M9 8 H5.5 a3.2 3.2 0 0 0 3.4 5.2" fill="none" stroke="url(#gold)" stroke-width="1.7" stroke-linecap="round"/>
  <path d="M23 8 H26.5 a3.2 3.2 0 0 1 -3.4 5.2" fill="none" stroke="url(#gold)" stroke-width="1.7" stroke-linecap="round"/>
  <!-- copa -->
  <path d="M8.5 6 H23.5 V9.5 C23.5 15 20.2 18.5 16 18.5 C11.8 18.5 8.5 15 8.5 9.5 Z" fill="url(#gold)"/>
  <!-- tallo -->
  <rect x="14.8" y="18" width="2.4" height="3.8" fill="url(#gold)"/>
  <!-- base -->
  <rect x="10.5" y="21.5" width="11" height="2.4" rx="1.1" fill="url(#gold)"/>
  <rect x="12.5" y="24" width="7" height="2.2" rx="1.1" fill="url(#gold)"/>
</svg>
